<svg width="23" height="40" viewBox="0 0 23 40" fill="none" xmlns="http://www.w3.org/2000/svg">
<path d="M22.1041 1.04175C22.625 1.56258 22.8854 2.17925 22.8854 2.89175C22.8854 3.60425 22.625 4.22022 22.1041 4.73967L6.84371 20.0001L22.1562 35.3126C22.6423 35.7987 22.8854 36.4063 22.8854 37.1355C22.8854 37.8647 22.625 38.4897 22.1041 39.0105C21.5833 39.5313 20.9666 39.7917 20.2541 39.7917C19.5416 39.7917 18.9257 39.5313 18.4062 39.0105L0.906208 21.4584C0.697874 21.2501 0.549959 21.0244 0.46246 20.7813C0.37496 20.5383 0.331903 20.2779 0.333292 20.0001C0.333292 19.7223 0.377041 19.4619 0.46454 19.2188C0.552042 18.9758 0.699263 18.7501 0.906208 18.5417L18.4583 0.989666C18.9444 0.503555 19.5437 0.260498 20.2562 0.260498C20.9687 0.260498 21.5847 0.520916 22.1041 1.04175Z" fill="#084453"/>
</svg>
