<svg width="23" height="40" viewBox="0 0 23 40" fill="none" xmlns="http://www.w3.org/2000/svg">
<path d="M0.895752 38.9583C0.374919 38.4374 0.114502 37.8208 0.114502 37.1082C0.114502 36.3958 0.374919 35.7798 0.895752 35.2603L16.1562 19.9999L0.843668 4.68742C0.357557 4.20131 0.114502 3.59367 0.114502 2.8645C0.114502 2.13534 0.374919 1.51034 0.895752 0.989502C1.41659 0.468669 2.03325 0.208252 2.74575 0.208252C3.45825 0.208252 4.07422 0.468669 4.59367 0.989502L22.0937 18.5416C22.302 18.7499 22.4499 18.9756 22.5374 19.2187C22.6249 19.4617 22.668 19.7221 22.6666 19.9999C22.6666 20.2777 22.6228 20.5381 22.5353 20.7812C22.4478 21.0242 22.3006 21.2499 22.0937 21.4583L4.54158 39.0103C4.05547 39.4964 3.45617 39.7395 2.74367 39.7395C2.03117 39.7395 1.4152 39.4791 0.895752 38.9583Z" fill="#084453"/>
</svg>
