<svg width="261" height="134" viewBox="0 0 261 134" fill="none" xmlns="http://www.w3.org/2000/svg">
<path d="M59.6023 73.0409C59.3122 73.1633 59.0674 73.3388 58.9248 73.6282C58.8982 73.6823 58.883 73.7409 58.8613 73.7969C58.8196 73.8029 58.7933 73.8172 58.8137 73.861C58.8179 73.8699 58.8215 73.8803 58.8256 73.8892C58.5259 74.7829 58.7926 75.8798 59.1014 76.7777C59.2511 77.2129 59.9513 76.6963 60.6306 76.1799C61.0744 76.1564 61.5108 75.7347 61.9543 75.4479C62.0513 75.5108 62.0682 75.7006 61.9618 76.0901C66.6469 74.709 71.3371 73.3434 76.0438 72.0497C71.599 73.9496 67.1678 75.887 62.7615 77.8869C62.1459 77.9451 61.5626 78.0302 61.4893 78.568C61.4338 78.975 61.6455 79.2915 61.9527 79.5753L51.6944 84.0502C48.9406 84.9598 46.172 85.8197 43.4458 86.8223C40.5319 87.8744 37.6145 88.9304 34.7617 90.1615C33.2972 90.8003 33.705 92.7127 34.876 92.9856C32.7322 94.1365 30.5885 95.2874 28.4436 96.4359C28.2955 96.3633 28.1501 96.2907 27.9724 96.2197C27.2722 95.94 26.5717 96.7927 25.8937 97.1339C24.3384 97.9168 20.2678 100.21 18.7458 101.059C18.683 101.244 18.606 101.426 18.5342 101.608C18.0814 101.831 17.6288 102.053 17.1713 102.264C17.0968 102.299 16.8548 102.216 16.929 102.25C17.3067 102.426 17.6886 102.589 18.0704 102.754C17.7469 103.53 17.4477 104.313 17.3565 105.147C17.3183 105.496 18.018 105.059 18.3226 104.924C19.0989 104.581 19.8612 104.202 20.6192 103.814C20.8754 104.074 21.1318 104.259 21.389 104.391C21.4396 104.583 21.4986 104.783 21.5763 104.999C21.6905 105.316 21.9356 105.084 22.2362 104.631C23.6745 104.728 25.1523 103.415 26.7515 102.602C28.6563 101.633 30.5547 100.65 32.4547 99.6699C32.649 99.7269 32.8436 99.7752 33.0079 99.7996C33.7017 99.9028 34.325 99.2829 34.9782 99.0094C35.8172 98.658 36.6522 98.2921 37.4863 97.9239C36.475 98.497 35.4637 99.0696 34.4648 99.6649C33.5693 100.172 32.6738 100.68 31.778 101.187C31.0504 101.51 30.3572 101.88 29.7352 102.345C29.6818 102.376 29.6282 102.406 29.5748 102.436C28.7876 102.886 27.7054 103.04 27.0044 103.581C26.6474 103.752 26.3662 103.989 26.2598 104.379C26.2531 104.404 26.2563 104.43 26.2513 104.455C25.982 104.442 25.7008 104.722 25.4215 105.005C25.1217 105.129 24.845 105.402 24.5682 105.676C24.3402 105.822 24.1789 105.928 23.9949 106.046C23.9111 106.095 23.7697 106.176 23.6904 106.222C21.6232 107.442 20.319 107.72 19.7292 108.786C19.4497 108.951 19.1709 109.117 18.8914 109.282C18.6689 109.354 18.2285 109.404 18.386 109.516C18.4018 109.527 18.4186 109.54 18.4344 109.551C18.1624 109.712 17.8913 109.873 17.6192 110.033C17.6627 110.117 17.6783 110.183 17.7087 110.259C17.0534 110.598 16.2919 110.984 15.7742 111.256C15.2117 111.552 14.4358 111.644 13.8817 111.952C13.32 112.081 12.9273 112.315 12.93 112.795C12.9328 113.311 13.133 113.874 13.4486 114.332C13.6437 114.753 13.9254 115.128 14.2545 115.361C14.5736 115.586 14.9075 115.442 15.2483 115.122C15.8437 114.869 16.396 114.206 16.9874 113.886C17.276 114.136 17.5971 114.34 17.8843 114.446C18.5696 114.699 19.1983 113.783 19.8557 113.451C21.0716 112.79 22.5848 111.967 24.0526 111.159C25.758 110.496 27.4363 109.753 29.1252 109.042C30.7294 108.367 32.3288 107.679 33.9304 106.997C32.263 108.11 30.6112 109.251 28.9652 110.4C21.581 114.331 14.1898 118.247 6.7925 122.15C5.48278 122.83 4.09653 123.363 2.86282 124.189C2.51753 124.421 2.1408 124.669 1.77513 124.916C1.40145 124.927 1.0737 124.967 1.12856 125.261C1.13492 125.296 1.15206 125.323 1.16214 125.355C-0.054392 126.287 -0.678456 127.267 1.83198 128.096C2.30793 128.253 2.79763 127.823 3.27874 127.681C5.36217 127.066 7.86178 126.297 9.88513 125.68C11.8607 125.054 13.5607 124.522 15.2659 123.975C14.7175 124.33 14.3172 124.59 13.6911 124.996C11.2891 126.613 8.78535 128.048 6.36118 129.625C5.77873 130.003 5.01066 130.198 4.64576 130.813C4.27183 131.443 3.67218 132.825 4.34369 133.025C4.82039 133.167 5.38569 133.166 5.99694 133.077C6.02046 133.152 6.0597 133.22 6.13822 133.271C6.45069 133.473 6.75483 133.191 7.05939 132.848C9.99678 132.012 13.5818 129.63 14.8998 128.909C20.7076 125.613 26.5011 122.287 32.2956 118.964C32.1607 119.156 32.0305 119.352 31.8882 119.535C32.2469 119.796 32.5739 120.127 32.925 120.405C32.4609 120.639 31.894 120.924 31.5579 121.093C31.4699 120.791 31.3901 120.414 31.3326 119.863C29.8048 120.744 28.2751 121.62 26.7494 122.504C24.6904 123.698 22.5452 124.56 21.005 126.243C20.5756 126.466 20.1578 126.712 19.7601 126.996C19.5418 127.152 19.9598 127.078 20.3824 127.027C19.9315 127.675 19.555 128.428 19.2875 129.339C19.125 129.893 20.3601 129.815 20.886 129.669C22.1952 129.304 23.4032 128.63 24.5879 127.888C24.7151 128.062 25.009 128.232 25.5527 128.388C24.6479 130.819 26.1821 129.698 26.8466 129.229C27.1676 129.074 27.4927 128.929 27.8156 128.779C28.3835 128.823 28.8818 128.462 29.3722 128.064C30.8168 127.418 32.2691 126.792 33.7144 126.148C32.9784 126.833 32.6816 127.474 35.4688 127.335C35.3416 128.114 35.3789 128.624 35.7453 128.12C36.223 127.807 36.7039 127.499 37.1821 127.187C37.365 127.168 37.4885 127.163 37.6873 127.139C39.1206 126.965 40.2603 125.738 41.5485 125.042C41.607 125.01 43.2005 124.155 44.5183 123.446C44.3243 123.581 44.1308 123.717 43.937 123.853C43.7463 123.985 43.5546 124.116 43.3647 124.249C42.7245 124.571 41.7807 124.657 41.6063 125.361C41.5986 125.393 41.5943 125.417 41.5869 125.448C40.8154 125.882 39.7718 126.383 41.3015 127.127C41.1824 129.112 42.4497 128.345 43.2862 127.793C43.8573 127.825 44.3282 127.048 44.8611 126.733C46.5657 125.723 48.3831 124.713 50.1055 123.743C50.5323 123.506 50.9593 123.271 51.3856 123.033L51.5023 123.34L79.3426 111.195C79.6181 111.256 79.9731 111.3 80.3899 111.33C80.5141 111.732 80.7369 111.859 81.0676 111.359C81.2474 111.364 81.4167 111.371 81.6185 111.37C82.9925 111.364 84.0933 110.084 85.3233 109.426C86.7393 108.669 88.1466 107.893 89.5576 107.125C89.8749 107.974 90.4854 108.759 91.2411 109.188C91.2506 109.205 91.2538 109.215 91.2634 109.232C91.3019 109.298 91.3483 109.303 91.3991 109.274C91.4182 109.283 91.4359 109.296 91.4551 109.305C91.7123 109.424 91.9673 109.291 92.223 109.105C92.6155 109.512 93.0598 109.834 93.5759 109.896C93.974 109.944 99.2822 106.843 99.3114 106.827C100.86 105.896 102.025 105.206 103.399 104.329C103.69 104.248 103.966 104.07 104.234 103.848C104.501 103.749 104.802 103.659 104.743 103.428C104.741 103.421 104.74 103.416 104.738 103.408C104.953 103.219 105.17 103.038 105.394 102.905C107.07 101.904 108.743 100.894 110.419 99.8939C118.717 94.9416 115.671 96.7449 124.56 91.6144C124.939 91.3989 125.321 91.1884 125.7 90.9736L137.257 85.9323C134.915 87.4394 132.37 89.0817 131.582 89.6186C130.809 90.1446 130.07 90.7251 129.314 91.2781C129.096 91.5382 128.424 91.8176 128.659 92.0585C129.424 92.8413 130.031 93.3043 130.572 93.5429C130.65 93.9831 130.766 94.1647 130.865 93.6944C130.877 93.6852 130.891 93.6759 130.903 93.6665C132.232 94.0416 133.219 92.9918 135.329 91.9028C136.845 91.1205 138.352 90.3203 139.862 89.5236C148.423 85.0047 140.61 89.0915 148.123 85.173C150.412 84.0242 150.889 83.7501 153.029 82.7845C153.542 82.5528 154.074 82.3675 154.579 82.1159C156.468 81.1741 158.26 79.9987 160.058 78.8772C161.778 77.8182 163.419 76.6269 165.014 75.3673C165.586 74.9159 166.134 74.4287 166.724 74.0056C167.951 73.1258 169.209 72.2966 170.456 71.45L182.267 66.298C182.371 66.3503 182.477 66.4004 182.583 66.4508C182.583 66.7639 182.606 67.0737 182.696 67.3725C182.781 67.656 183.052 67.13 183.295 66.8143C183.44 66.891 183.591 66.9623 183.727 67.05C188.081 64.9151 192.325 62.5322 196.626 60.2792C196.627 60.4057 196.656 60.5243 196.749 60.6262C197.998 62.0055 200.049 60.8009 201.219 60.3001C202.709 59.6626 204.251 58.999 205.701 58.2684C206.628 57.8014 207.535 57.2918 208.453 56.8034C211.814 54.9685 214.989 52.7936 218.172 50.6355L224.009 48.0893L223.671 47.2005C223.855 47.325 224.075 46.9599 224.247 46.8024C224.32 46.735 224.446 46.6424 224.56 46.5544C225.396 45.9905 226.234 45.4286 227.062 44.8531C230.224 42.8906 233.423 41.0006 236.582 39.0332C236.588 39.0302 240.718 36.4486 241.075 36.1335C241.382 35.863 241.545 35.4464 241.779 35.103C240.957 34.759 240.178 34.1532 239.349 33.8517C239.34 33.8575 239.313 33.8752 239.305 33.881C239.306 33.8664 239.302 33.8504 239.303 33.8359C239.305 33.8347 239.304 33.8359 239.307 33.8342C239.191 33.7935 239.073 33.7636 238.954 33.737C239.494 33.3471 240.071 32.9453 240.054 32.3248C240.033 31.5656 239.311 31.0961 238.729 30.5693C239.07 30.3937 239.165 30.3471 239.981 29.9277C240.336 29.7456 240.641 29.5965 240.953 29.441C241.113 29.413 241.256 29.3755 241.282 29.2761C241.701 29.053 242.102 28.7988 242.505 28.4435C242.681 28.6798 242.889 28.8664 243.167 28.9423C244.097 29.196 244.921 28.0985 245.792 27.6626C249.662 25.7254 253.48 23.6677 257.281 21.581C257.59 21.3387 258.31 21.2471 258.209 20.8537C258.09 20.3911 257.903 19.8971 257.653 19.4601C258.18 19.1548 258.709 18.8536 259.228 18.5343C259.581 18.3175 260.438 18.2155 260.255 17.829C259.968 17.2213 259.439 16.8171 258.89 16.4285C258.898 16.0661 258.88 15.7084 258.765 15.3686C258.669 15.0867 258.351 15.542 258.076 15.8152C258.006 15.7586 257.93 15.708 257.864 15.6481C255.072 16.9083 252.301 18.2222 249.534 19.5463C249.545 19.3488 249.56 19.1535 249.593 18.9665C249.338 19.0072 249.08 19.0335 248.823 19.0651C249.508 18.7008 250.191 18.3341 250.863 17.9438C251.428 17.6161 252.87 17.3445 252.472 16.8094C251.961 16.1224 251.41 15.6779 250.838 15.4024C250.87 15.2233 250.892 15.0329 250.909 14.8358C252.278 14.0171 253.823 12.8956 250.404 13.5017C250.809 13.0035 251.071 12.6288 251.21 12.3612C251.522 12.285 251.726 12.1515 251.648 11.8585C251.607 11.7102 251.555 11.5961 251.505 11.4718C251.653 10.7656 251.476 9.9775 250.721 9.09938C250.189 8.48035 249.222 9.63294 248.495 9.96059C246.417 10.8963 244.373 11.9043 242.34 12.9395C242.403 12.7701 242.467 12.6122 242.53 12.4303C242.715 11.8884 241.624 13.0665 241.145 13.3348C240.786 13.5358 240.423 13.7276 240.063 13.9257C239.771 13.9371 239.483 13.9629 239.2 14.0113C239.387 13.3273 239.022 12.7122 237.607 12.3367C237.65 11.8898 237.418 11.4041 236.65 10.9118C235.883 10.4209 234.87 11.2107 234.022 11.5224C232.937 11.9214 231.93 12.5299 230.883 13.0329C230.432 13.2495 229.98 13.4662 229.529 13.6828C229.533 13.6693 229.534 13.6552 229.539 13.6414C229.713 13.5375 229.82 13.4719 230.335 13.19C230.253 13.1156 230.18 13.0212 230.102 12.9369C230.837 12.457 231.573 11.9815 232.31 11.5061C233.231 10.9375 234.151 10.3669 235.072 9.79822C236.847 8.70139 241.187 6.01298 243.193 4.7953C243.644 4.52105 244.371 4.46587 244.716 4.11107C245.116 4.01865 245.385 3.86363 245.322 3.55603C245.173 2.83071 244.826 2.02596 244.293 1.52758C244.178 1.35224 244.06 1.17985 243.932 1.02973C243.79 0.862771 243.614 0.925359 243.422 1.11274C242.879 1.16534 242.386 1.91524 241.865 2.23073C241.675 2.34578 241.272 2.59765 241.028 2.74672C241.027 2.74187 241.026 2.73944 241.025 2.73458C237.904 4.55682 234.83 6.46694 231.781 8.42137C231.72 8.08987 231.613 7.78237 231.401 7.52974C231.017 7.071 230.271 7.79902 229.725 8.00261C228.54 8.44436 227.376 8.94755 226.218 9.46305C225.733 9.67909 225.251 9.90577 224.767 10.1257C224.726 9.99935 224.668 9.87893 224.596 9.76353C224.29 9.27604 223.54 10.109 223.026 10.3236C222.593 10.5046 222.164 10.6979 221.734 10.8885C221.606 10.8535 221.488 10.8166 221.342 10.785C221.07 10.7264 220.803 10.7427 220.537 10.791C221.039 10.4744 221.54 10.1573 222.033 9.8255C223.327 8.95506 227.353 7.40132 223.591 5.09212C223.036 4.75149 222.389 5.57613 221.803 5.85632C221.725 5.89374 221.633 5.94153 221.554 5.97981C221.391 5.99066 221.205 6.0499 221.009 6.12697C220.647 5.88684 220.201 6.42506 219.788 6.65843C217.926 7.42282 216.051 8.14594 214.159 8.82083C210.176 10.2445 206.182 11.6427 202.266 13.2716C194.983 16.3038 187.673 19.2656 180.441 22.4347C172.61 25.9655 164.836 29.6383 157.126 33.4595C156.899 32.9843 156.062 33.4077 155.566 33.5653C154.346 33.9529 153.192 34.5513 152.029 35.103C149.125 36.4801 146.391 37.9392 143.604 39.4322C143.472 39.3303 142.974 39.556 142.74 39.6462C142.008 39.927 141.327 40.3423 140.623 40.6956C140.599 40.7078 138.865 41.5758 137.206 42.426C137.195 42.4154 137.183 42.4066 137.171 42.397C137.114 42.2717 137.062 42.1475 137.023 42.0222C136.942 42.0731 136.86 42.1224 136.779 42.1733C136.766 42.1689 136.754 42.1605 136.74 42.1568C135.86 41.9369 135.147 43.0762 134.348 43.5307C132.428 44.6222 130.506 45.714 128.583 46.801C128.525 46.6737 128.454 46.5531 128.358 46.4452C127.913 45.9466 127.198 47.0594 126.627 47.3857C126.622 47.3889 125.108 48.2807 123.627 49.1572C123.595 49.1701 123.564 49.1841 123.532 49.197C119.571 50.8232 115.596 52.4131 111.609 53.9677C108.492 55.172 105.373 56.3673 102.248 57.5478C102.209 57.5516 102.17 57.5574 102.13 57.561C101.62 57.6081 100.884 57.2029 100.594 57.6513C99.872 57.6449 99.151 57.6768 99.4099 58.6017C97.1392 59.4513 94.8694 60.3036 92.591 61.131C85.8546 63.5773 85.3595 63.7095 78.696 66.0594C76.3703 66.8796 74.0465 67.7077 71.7219 68.5316C67.6538 70.0344 65.0203 70.9383 61.1707 72.5752C60.6962 72.7769 60.0871 72.8357 59.6036 73.0399L59.6023 73.0409ZM239.305 33.8352C239.321 33.84 239.334 33.8467 239.349 33.8521C239.819 33.5421 239.823 33.5291 239.305 33.8352ZM87.523 66.0418C89.087 65.4891 90.5953 64.9537 93.4579 63.9142C93.976 63.726 94.4908 63.5286 95.0085 63.3392C95.1142 63.626 95.2455 63.9114 95.372 64.1971C95.3689 64.3846 95.3959 64.5664 95.4478 64.7441C95.3123 64.8039 95.1766 64.8633 95.0409 64.9228C94.8913 64.801 94.6931 64.6627 94.5026 64.5269C94.4748 64.4474 94.4559 64.3611 94.4245 64.2852C94.3543 64.1149 94.2194 64.123 94.0492 64.2263C93.5019 63.9913 92.8223 64.6136 92.2161 64.7761C85.5292 66.5688 88.7727 65.7136 87.523 66.0418ZM41.0592 109.927C41.1307 110.119 41.2052 110.31 41.2964 110.492C39.6374 111.441 37.9776 112.389 36.3193 113.34C36.0965 113.428 35.8742 113.517 35.6512 113.604C37.0713 112.596 38.4843 111.578 39.8974 110.56C40.0109 110.499 40.8542 110.046 41.0592 109.927L41.0592 109.927ZM41.3491 115.293C41.5324 115.473 41.7264 115.638 41.9281 115.793C41.5591 115.956 41.2151 116.149 40.9213 116.403C39.6303 117.045 38.8337 117.434 37.1396 118.285C37.1343 118.278 37.13 118.271 37.1247 118.264C37.5105 117.963 37.8913 117.652 38.2905 117.38C39.0196 116.882 40.2156 116.078 41.3491 115.293ZM154.534 78.3958L157.409 77.1417C156.147 77.9405 154.877 78.737 153.554 79.3959C153.026 79.6587 152.471 79.8537 151.935 80.096C151.683 80.2098 151.582 80.2633 151.37 80.3609C152.422 79.7007 153.48 79.052 154.534 78.3958L154.534 78.3958ZM100.155 102.881C100.136 102.915 100.125 102.95 100.112 102.985C99.7958 103.176 99.4301 103.396 99.0919 103.598C99.4464 103.359 99.8004 103.12 100.155 102.881L100.155 102.881ZM199.596 60.6311C199.432 60.8162 199.141 61.0048 198.652 61.1976C198.964 61.0046 199.283 60.8221 199.596 60.6311Z" fill="#E68698"/>
</svg>
