<svg width="28" height="28" viewBox="0 0 28 28" fill="none" xmlns="http://www.w3.org/2000/svg">
<path d="M26.5766 23.9235C26.9288 24.2757 27.1267 24.7534 27.1267 25.2516C27.1267 25.7497 26.9288 26.2275 26.5766 26.5797C26.2243 26.932 25.7466 27.1298 25.2484 27.1298C24.7503 27.1298 24.2725 26.932 23.9203 26.5797L14 16.6563L4.07656 26.5766C3.72431 26.9288 3.24657 27.1267 2.74843 27.1267C2.25029 27.1267 1.77255 26.9288 1.42031 26.5766C1.06807 26.2243 0.870178 25.7466 0.870178 25.2485C0.870178 24.7503 1.06807 24.2726 1.42031 23.9203L11.3437 14L1.42343 4.07659C1.07119 3.72435 0.873303 3.24661 0.873303 2.74847C0.873303 2.25032 1.07119 1.77258 1.42343 1.42034C1.77567 1.0681 2.25341 0.870215 2.75156 0.870215C3.2497 0.870215 3.72744 1.0681 4.07968 1.42034L14 11.3438L23.9234 1.41878C24.2757 1.06654 24.7534 0.868652 25.2516 0.868652C25.7497 0.868652 26.2274 1.06654 26.5797 1.41878C26.9319 1.77102 27.1298 2.24876 27.1298 2.7469C27.1298 3.24505 26.9319 3.72279 26.5797 4.07503L16.6562 14L26.5766 23.9235Z" fill="white"/>
</svg>
