<svg width="432" height="254" viewBox="0 0 432 254" fill="none" xmlns="http://www.w3.org/2000/svg">
<path d="M125.842 54.6331C123.228 54.6494 120.645 54.1197 118.299 53.0851C115.991 52.0608 114.061 50.4655 112.734 48.4875C111.268 46.2145 110.538 43.6199 110.627 40.9952C110.585 38.5373 111.276 36.113 112.631 33.975C113.954 31.911 115.901 30.2237 118.247 29.1066C120.811 27.894 123.677 27.2834 126.576 27.3341C128.399 27.3169 130.215 27.5233 131.976 27.9456C133.314 28.2569 134.607 28.7058 135.829 29.2846V33.5571C134.889 32.1269 133.51 30.9685 131.855 30.2211C130.214 29.3998 128.369 28.9612 126.489 28.944C124.177 28.8924 121.891 29.3886 119.863 30.3837C117.995 31.3271 116.489 32.7547 115.543 34.4781C114.504 36.4071 113.992 38.5296 114.048 40.6701C113.974 42.9801 114.569 45.2685 115.776 47.311C116.838 49.0611 118.44 50.5016 120.39 51.4597C122.304 52.3885 124.451 52.8658 126.628 52.8451C127.701 52.8417 128.77 52.7325 129.816 52.5201C130.88 52.3128 131.912 51.9937 132.892 51.568V45.2367C132.931 44.5943 132.781 43.9545 132.46 43.3791C132.239 42.9947 131.912 42.667 131.509 42.4271C131.172 42.2336 131.008 42.1639 131.008 42.2026H137.86C137.86 42.1614 137.687 42.2155 137.342 42.3652C136.947 42.5707 136.623 42.8709 136.409 43.2321C136.085 43.7756 135.935 44.3896 135.977 45.0045V51.9705C132.93 53.6699 129.414 54.5737 125.824 54.5789L125.842 54.6331Z" fill="black"/>
<path d="M154.837 43.9751L152.107 50.0665C151.733 50.7983 151.514 51.5852 151.46 52.3885C151.439 52.772 151.554 53.1521 151.786 53.4755C152.018 53.7989 152.357 54.0491 152.756 54.1919H146.612C146.897 54.1919 147.312 53.9442 147.856 53.4179C148.655 52.4925 149.293 51.4648 149.748 50.3683L160.92 26.5369L172.031 50.5309C172.43 51.5715 173.047 52.5355 173.845 53.3714C174.22 53.7533 174.7 54.0414 175.236 54.2074H168.126C168.442 54.0956 168.714 53.9003 168.904 53.6475C169.093 53.3947 169.193 53.0954 169.188 52.7909C169.116 51.986 168.882 51.1991 168.497 50.4689L165.517 43.9519L154.837 43.9751ZM164.825 42.4271L160.151 32.1716L155.581 42.4271H164.825Z" fill="black"/>
<path d="M186.46 31.3821C186.504 30.5909 186.363 29.7997 186.045 29.0601C185.857 28.6344 185.531 28.268 185.111 28.0075C184.775 27.8294 184.61 27.7675 184.61 27.814H191.427C191.427 27.7675 191.255 27.814 190.909 28.0075C190.492 28.2706 190.168 28.6361 189.976 29.0601C189.642 29.7963 189.495 30.5892 189.544 31.3821V52.6826H196.56C197.714 52.7135 198.856 52.4684 199.869 51.9705C200.734 51.568 201.435 50.9316 201.874 50.1516L201.113 54.2151H184.61C184.61 54.2847 184.775 54.2151 185.111 54.0371C185.542 53.7455 185.867 53.3473 186.045 52.8916C186.362 52.0849 186.503 51.2309 186.46 50.376V31.3821Z" fill="black"/>
<path d="M211.982 54.2151C211.982 54.2848 212.146 54.2151 212.483 54.0371C212.913 53.7447 213.241 53.3465 213.425 52.8916C213.738 52.084 213.879 51.2301 213.84 50.3761V31.5292C213.878 30.7156 213.738 29.9029 213.425 29.1375C213.231 28.6869 212.906 28.2913 212.483 27.992C212.146 27.7908 211.982 27.7366 211.982 27.814H227.534V31.684C227.015 30.136 225.469 29.362 222.903 29.362H216.95V40.2676H224.311C224.812 40.2805 225.31 40.1963 225.772 40.02C226.093 39.8944 226.386 39.7155 226.636 39.4936C226.758 39.3887 226.872 39.2752 226.972 39.1531V42.876C226.876 42.7462 226.763 42.6266 226.636 42.52C226.383 42.3093 226.091 42.1407 225.772 42.0246C225.318 41.8655 224.833 41.789 224.346 41.8002H216.933V52.6826H223.612C224.766 52.7127 225.908 52.4667 226.92 51.9705C227.782 51.5663 228.48 50.9299 228.917 50.1516L228.165 54.2151H211.982Z" fill="black"/>
<path d="M248.918 40.941C250.134 40.9728 251.335 40.6882 252.374 40.1206C253.313 39.5943 254.072 38.8469 254.569 37.9611C255.066 37.1054 255.327 36.1551 255.329 35.1902C255.337 34.2124 255.095 33.2457 254.621 32.3651C254.15 31.4681 253.401 30.713 252.461 30.1902C251.391 29.6054 250.154 29.313 248.901 29.3465H245.264V50.6857C245.218 51.4786 245.366 52.2707 245.696 53.0077C245.885 53.4308 246.21 53.7937 246.629 54.0526C246.983 54.2151 247.155 54.2693 247.155 54.2151H240.33C240.33 54.2693 240.503 54.2151 240.839 54.0216C241.254 53.7645 241.577 53.4076 241.773 52.9922C242.095 52.2535 242.236 51.4623 242.188 50.6702V31.475C242.231 30.658 242.09 29.8419 241.773 29.0756C241.587 28.6319 241.264 28.2448 240.839 27.961C240.503 27.7675 240.33 27.7211 240.33 27.7985H248.832C250.722 27.74 252.601 28.0797 254.318 28.7892C255.632 29.3173 256.726 30.2031 257.446 31.3202C258.096 32.3522 258.433 33.5184 258.422 34.7026C258.404 35.7561 258.107 36.7898 257.559 37.7212C257 38.7205 256.2 39.596 255.217 40.2831C254.192 41.0374 252.985 41.5671 251.692 41.8311L251.009 41.9395L258.551 50.5541C259.545 51.5448 260.375 52.3033 261.032 52.8761C261.483 53.2648 261.965 53.6243 262.474 53.952C262.645 54.0663 262.824 54.1695 263.011 54.2616H257.99L246.344 40.9875L248.918 40.941Z" fill="black"/>
<path d="M272.514 54.2151C272.514 54.2848 272.687 54.2151 273.024 54.0371C273.443 53.7653 273.772 53.3955 273.975 52.969C274.31 52.2337 274.457 51.4399 274.407 50.647V31.3821C274.451 30.5909 274.31 29.7997 273.991 29.0601C273.797 28.625 273.46 28.2526 273.024 27.992C272.687 27.814 272.523 27.7521 272.523 27.7985H279.34C279.34 27.7521 279.167 27.7985 278.821 27.992C278.403 28.2569 278.077 28.6215 277.879 29.0446C277.55 29.7817 277.403 30.5737 277.447 31.3666V50.6315C277.4 51.4244 277.548 52.2174 277.879 52.9535C278.082 53.3741 278.408 53.7378 278.821 54.0062C279.167 54.1919 279.34 54.2538 279.34 54.1996L272.514 54.2151Z" fill="black"/>
<path d="M297.017 43.9751L294.279 50.0665C293.905 50.7983 293.684 51.5852 293.63 52.3885C293.611 52.772 293.724 53.1521 293.957 53.4755C294.189 53.7989 294.528 54.0491 294.926 54.1919H288.792C289.077 54.1919 289.492 53.9442 290.036 53.4179C290.834 52.4934 291.469 51.4648 291.92 50.3683L303.1 26.5369L314.21 50.5309C314.607 51.5732 315.223 52.5372 316.025 53.3714C316.397 53.7524 316.873 54.0405 317.408 54.2074H310.306C310.616 54.0895 310.882 53.8926 311.069 53.6406C311.256 53.3887 311.358 53.0937 311.36 52.7909C311.291 51.986 311.06 51.1991 310.677 50.4689L307.687 43.9519L297.017 43.9751ZM307.005 42.4271L302.331 32.1716L297.751 42.4271H307.005Z" fill="black"/>
<path d="M211.68 79.5869C211.317 79.3314 210.055 79.2308 203.394 79.0528C204.258 76.0032 205.019 73.0156 205.735 70.3221C206.764 66.4908 207.68 63.1548 208.189 61.127C208.941 58.0774 209.373 55.8405 209.572 54.2771C209.771 52.7136 209.658 51.5448 208.708 51.2662C206.885 50.6934 204.509 54.4551 195.99 69.5403C194.262 72.5589 192.534 75.6782 190.719 78.7355C185.017 78.5961 179.746 78.48 178.995 78.3407C178.801 78.3089 178.601 78.3476 178.44 78.4474C178.278 78.548 178.167 78.7011 178.131 78.8748C178.097 79.0468 178.141 79.2239 178.25 79.3684C178.36 79.5129 178.528 79.6135 178.718 79.6488C179.582 79.8268 183.514 79.9274 190.011 80.0745C186.806 85.5389 183.678 90.508 181.181 93.5266C179.868 95.1211 178.649 95.6551 177.535 95.0746C174.606 93.5266 172.351 84.5327 175.4 78.3949C177.992 73.1085 183.038 73.2865 186.806 74.3469C186.999 74.3959 187.206 74.3753 187.383 74.2901C187.561 74.205 187.695 74.0614 187.756 73.8902C187.788 73.8034 187.8 73.7113 187.79 73.621C187.781 73.5299 187.752 73.4413 187.703 73.3613C187.654 73.2805 187.588 73.21 187.508 73.1532C187.428 73.0964 187.336 73.0552 187.238 73.0311C181.095 71.2973 176.386 73.0311 174.01 77.8608C170.994 83.8903 172.541 94.0761 176.783 96.282C177.846 96.8161 179.989 97.3115 182.407 94.3625C185.06 91.1659 188.352 85.8485 191.678 80.1287C192.274 80.1674 192.862 80.1674 193.458 80.1674L201.502 80.3841C195.367 103.805 195.367 106.894 196.793 107.42C196.918 107.461 197.049 107.487 197.182 107.497C197.977 107.497 198.651 106.607 199.204 105.756C199.29 105.592 199.311 105.407 199.26 105.231C199.209 105.056 199.091 104.902 198.927 104.796C198.753 104.711 198.55 104.689 198.358 104.735C198.167 104.781 198.002 104.892 197.899 105.044C197.744 105.26 197.614 105.438 197.502 105.578C197.502 104.301 197.934 101.034 199.921 92.6984C200.863 88.8284 201.934 84.5714 203.048 80.415C207.092 80.5234 210.298 80.624 210.929 80.7711C211.029 80.8124 211.138 80.8364 211.248 80.8407C211.366 80.8433 211.482 80.8192 211.586 80.7711C211.691 80.7221 211.78 80.6498 211.844 80.5621C211.96 80.4116 212.008 80.2267 211.978 80.0452C211.947 79.8638 211.84 79.7004 211.68 79.5869ZM193.493 78.8129C193.138 78.8129 192.819 78.8129 192.465 78.8129C194.124 75.9413 195.791 73.0311 197.373 70.1905C201.373 63.1239 206.289 54.4319 208.112 52.8374C208.112 53.6114 208.034 55.5696 206.678 60.8948C206.211 62.9149 205.295 66.2121 204.267 70.0512C203.403 73.3175 202.539 76.2974 201.847 79.0296C199.584 78.9444 196.819 78.8748 193.458 78.8051L193.493 78.8129Z" fill="black"/>
<path d="M231.319 78.8051C231.229 78.7613 231.13 78.7337 231.028 78.726C230.926 78.7182 230.823 78.7303 230.726 78.7595C230.629 78.7896 230.541 78.8378 230.465 78.8997C230.391 78.9625 230.331 79.0382 230.29 79.1225C225.729 87.7139 221.417 92.1102 220.466 91.9708C220.381 91.9321 218.998 90.7247 223.474 78.4181C223.595 78.093 223.871 77.35 223.24 76.963C222.61 76.576 221.971 76.963 220.864 77.5977C219.758 78.2323 218.048 79.2308 216.777 79.0915C220.821 72.8376 220.423 71.4598 219.508 70.9258C218.082 70.1518 216.052 72.3422 215.075 73.5883C213.132 76.2819 213.175 78.7354 215.239 79.9738C217.304 81.2122 220.07 79.6875 221.693 78.7354L221.772 78.658C220.509 81.9828 219.542 85.391 218.877 88.8516C218.445 91.4755 218.756 92.861 219.871 93.248C220.052 93.2867 220.237 93.3099 220.423 93.3176C223.595 93.3176 229.063 84.5869 231.655 79.7262C231.737 79.5628 231.748 79.3779 231.687 79.2076C231.624 79.0365 231.493 78.8937 231.319 78.8051ZM215.309 76.3515C215.866 74.7021 217.006 73.2598 218.557 72.2416C218.48 72.8066 218.048 74.401 215.507 78.3407C215.323 78.0397 215.21 77.7069 215.176 77.3646C215.142 77.0223 215.187 76.6775 215.309 76.3515Z" fill="black"/>
<path d="M263.165 65.918C262.648 65.2756 260.349 64.8886 235.751 65.3839C236.537 62.5124 237.254 59.9195 237.894 57.8297C237.932 57.7411 237.949 57.6465 237.944 57.5519C237.94 57.4573 237.913 57.3644 237.866 57.2793C237.82 57.1933 237.754 57.1185 237.674 57.0565C237.593 56.9955 237.499 56.9499 237.397 56.9224C237.296 56.8949 237.189 56.8871 237.084 56.8983C236.979 56.9095 236.877 56.9405 236.786 56.9886C236.694 57.0368 236.615 57.1013 236.554 57.1778C236.491 57.2543 236.448 57.3421 236.425 57.435C235.751 59.6718 235 62.3731 234.161 65.4226C231.984 65.4226 229.607 65.4923 227.033 65.5619C223.508 65.6316 220.734 65.7013 219.663 65.7013C219.461 65.7013 219.265 65.7709 219.119 65.8965C218.972 66.022 218.886 66.1932 218.877 66.3746C218.877 66.5621 218.959 66.7419 219.107 66.8752C219.254 67.0085 219.454 67.085 219.663 67.0867C220.769 67.0867 223.551 67.0171 227.076 66.9087C228.934 66.9087 231.232 66.839 233.807 66.7694C232.079 73.2245 230.161 80.9645 228.416 88.5265C227.155 94.0606 226.126 98.8517 225.452 102.366C225.089 104.208 224.855 105.663 224.735 106.654C224.579 108.008 224.502 108.79 225.253 109.038C225.374 109.038 225.452 109.038 225.573 109.038C226.238 109.038 226.601 108.186 226.912 107.404C226.95 107.321 226.968 107.232 226.967 107.142C226.966 107.053 226.944 106.964 226.904 106.882C226.863 106.8 226.805 106.725 226.733 106.664C226.66 106.602 226.574 106.554 226.48 106.522C226.403 106.522 226.36 106.522 226.281 106.522C226.679 103.759 227.863 97.5436 230.161 87.7525C231.889 80.3299 233.729 72.9149 235.397 66.7384C246.291 66.5294 260.453 66.3514 262.06 66.8468C262.188 66.9483 262.352 67.0076 262.523 67.0145C262.695 67.0222 262.863 66.9767 263.001 66.8855C263.16 66.7728 263.265 66.6103 263.295 66.4305C263.326 66.2508 263.279 66.0685 263.165 65.918Z" fill="black"/>
<path d="M251.554 78.9444C251.374 78.8765 251.172 78.873 250.99 78.9332C250.807 78.9934 250.657 79.1138 250.569 79.2695C247.553 84.7649 245.298 86.5064 244.227 86.3284C243.786 86.2587 242.361 85.5079 242.006 79.3004C242.003 79.1646 241.951 79.0339 241.86 78.9255C241.768 78.8171 241.642 78.7371 241.497 78.6967C241.342 78.6468 241.174 78.6443 241.017 78.689C240.861 78.7337 240.726 78.8232 240.633 78.9444C240.378 79.2153 240.141 79.5 239.924 79.7958C238.726 81.3171 237.431 82.774 236.045 84.1612C235.881 84.3375 235.692 84.494 235.483 84.6256C235.207 83.3794 236.676 78.6271 239.008 77.141C239.682 76.7076 240.598 76.367 241.825 77.6673C241.889 77.7361 241.969 77.792 242.058 77.8324C242.147 77.8729 242.244 77.8978 242.344 77.9038C242.444 77.9107 242.544 77.8986 242.639 77.8703C242.734 77.8419 242.822 77.7963 242.896 77.737C243.045 77.62 243.14 77.4575 243.161 77.2803C243.182 77.104 243.127 76.9269 243.009 76.785C241.505 75.237 240.079 75.2369 239.129 75.5388C236.079 76.4986 234.023 81.7308 233.945 84.1612C233.945 85.1519 234.23 85.7943 234.861 86.011C235.854 86.3671 236.84 85.4073 237.159 85.09C238.397 83.8636 239.551 82.571 240.615 81.22C241.047 85.268 242.119 87.2881 243.898 87.6442C244.062 87.6442 244.218 87.6829 244.374 87.6829C247.07 87.6829 249.964 83.4568 251.899 79.8345C251.941 79.7554 251.966 79.6702 251.973 79.5825C251.978 79.4957 251.964 79.4079 251.932 79.3254C251.9 79.2428 251.85 79.1663 251.786 79.1009C251.72 79.0356 251.641 78.9823 251.554 78.9444Z" fill="black"/>
<path d="M172.514 77.4429V76.4134C172.403 76.3515 172.301 76.2758 172.212 76.189C167.25 78.5333 162.006 80.3634 156.583 81.6457C147.943 83.689 130.896 88.1473 121.435 88.4646C120.804 88.511 120.165 88.5111 119.587 88.5111C111.603 88.5111 108.588 86.4599 104.526 83.3717C104.24 83.222 103.917 83.1369 103.585 83.124C103.41 83.1223 103.24 83.1679 103.094 83.2547C102.949 83.3424 102.837 83.4663 102.773 83.6116C102.696 83.7312 102.663 83.8688 102.678 84.0064C102.678 84.85 103.766 85.9723 106.065 87.0172C108.363 88.0621 112.553 89.3392 119.025 89.3392C120.696 89.3341 122.366 89.2541 124.027 89.0993C133.358 88.1782 149.178 84.8036 157.922 82.4351C165.274 80.446 170.389 78.7432 172.368 77.7447C172.404 77.6398 172.454 77.5383 172.514 77.4429Z" fill="black"/>
<path d="M254.958 79.076L254.837 80.1054C254.944 80.1734 255.04 80.2542 255.122 80.3454C260.328 78.4792 265.754 77.1522 271.296 76.3902C280.143 75.1673 297.605 72.3267 307.057 72.8917C307.688 72.8917 308.318 72.9691 308.898 73.0311C316.829 73.8051 319.603 76.0884 323.274 79.5481C323.543 79.7193 323.855 79.8311 324.182 79.8732C324.354 79.8921 324.529 79.8629 324.683 79.7915C324.838 79.7193 324.964 79.6075 325.046 79.4707C325.13 79.3529 325.178 79.2162 325.184 79.076C325.279 78.2401 324.32 77.0249 322.168 75.771C320.017 74.5171 315.991 72.8453 309.58 72.2416C308.06 72.1023 306.383 72.0249 304.578 72.0171C295.194 72.0636 279.064 73.9289 270.087 75.4692C262.544 76.7617 257.256 77.9769 255.174 78.7819C255.119 78.8894 255.046 78.9883 254.958 79.076Z" fill="black"/>
</svg>
