<svg width="30" height="30" viewBox="0 0 30 30" fill="none" xmlns="http://www.w3.org/2000/svg">
<path d="M27.1877 3.75C27.1877 3.50136 27.0889 3.2629 26.9131 3.08709C26.7373 2.91127 26.4988 2.8125 26.2502 2.8125C21.0845 2.8125 15.7841 8.63789 12.8404 12.4957C11.7891 12.1737 10.6769 12.1028 9.59318 12.2886C8.50947 12.4744 7.48444 12.9118 6.60042 13.5656C5.7164 14.2194 4.99804 15.0714 4.50303 16.0532C4.00802 17.035 3.75016 18.1192 3.75016 19.2188C3.75016 22.8375 1.46032 24.4605 1.35133 24.5355C1.18503 24.6478 1.05915 24.8105 0.992198 24.9997C0.925246 25.1889 0.920757 25.3945 0.979392 25.5864C1.03803 25.7783 1.15669 25.9464 1.31794 26.0658C1.47918 26.1853 1.6745 26.2498 1.87516 26.25H10.7814C11.8809 26.25 12.9651 25.9921 13.9469 25.4971C14.9287 25.0021 15.7807 24.2838 16.4346 23.3997C17.0884 22.5157 17.5257 21.4907 17.7116 20.407C17.8974 19.3233 17.8264 18.2111 17.5045 17.1598C21.3634 14.216 27.1877 8.91563 27.1877 3.75ZM14.5806 13.3066C14.9822 12.7863 15.3763 12.2961 15.7631 11.8359C16.7096 12.4754 17.5247 13.2906 18.1642 14.2371C17.7033 14.623 17.2131 15.0172 16.6935 15.4195C16.1472 14.5732 15.4269 13.853 14.5806 13.3066ZM19.5845 12.9926C18.8768 11.9939 18.0051 11.1222 17.0064 10.4145C20.7306 6.36797 23.5396 5.14102 25.1978 4.8C24.8638 6.45937 23.631 9.26836 19.5845 12.9926Z" fill="#084453"/>
</svg>
