<svg width="28" height="25" viewBox="0 0 28 25" fill="none" xmlns="http://www.w3.org/2000/svg">
<path d="M27.1877 1.75C27.1877 1.50136 27.0889 1.2629 26.9131 1.08709C26.7373 0.911272 26.4988 0.8125 26.2502 0.8125C21.0845 0.8125 15.7841 6.63789 12.8404 10.4957C11.7891 10.1737 10.6769 10.1028 9.59318 10.2886C8.50947 10.4744 7.48444 10.9118 6.60042 11.5656C5.7164 12.2194 4.99804 13.0714 4.50303 14.0532C4.00802 15.035 3.75016 16.1192 3.75016 17.2188C3.75016 20.8375 1.46032 22.4605 1.35133 22.5355C1.18503 22.6478 1.05915 22.8105 0.992198 22.9997C0.925246 23.1889 0.920757 23.3945 0.979392 23.5864C1.03803 23.7783 1.15669 23.9464 1.31794 24.0658C1.47918 24.1853 1.6745 24.2498 1.87516 24.25H10.7814C11.8809 24.25 12.9651 23.9921 13.9469 23.4971C14.9287 23.0021 15.7807 22.2838 16.4346 21.3997C17.0884 20.5157 17.5257 19.4907 17.7116 18.407C17.8974 17.3233 17.8264 16.2111 17.5045 15.1598C21.3634 12.216 27.1877 6.91563 27.1877 1.75ZM14.5806 11.3066C14.9822 10.7863 15.3763 10.2961 15.7631 9.83594C16.7096 10.4754 17.5247 11.2906 18.1642 12.2371C17.7033 12.623 17.2131 13.0172 16.6935 13.4195C16.1472 12.5732 15.4269 11.853 14.5806 11.3066ZM19.5845 10.9926C18.8768 9.99391 18.0051 9.12222 17.0064 8.41445C20.7306 4.36797 23.5396 3.14102 25.1978 2.8C24.8638 4.45937 23.631 7.26836 19.5845 10.9926Z" fill="#D2CACA"/>
</svg>
