<svg width="12" height="12" viewBox="0 0 12 12" fill="none" xmlns="http://www.w3.org/2000/svg">
<path d="M6 10.375C6.57453 10.375 7.14344 10.2618 7.67424 10.042C8.20504 9.82211 8.68734 9.49985 9.09359 9.09359C9.49985 8.68734 9.82211 8.20504 10.042 7.67424C10.2618 7.14344 10.375 6.57453 10.375 6C10.375 5.42547 10.2618 4.85656 10.042 4.32576C9.82211 3.79496 9.49985 3.31266 9.09359 2.90641C8.68734 2.50015 8.20504 2.17789 7.67424 1.95803C7.14344 1.73816 6.57453 1.625 6 1.625C4.83968 1.625 3.72688 2.08594 2.90641 2.90641C2.08594 3.72688 1.625 4.83968 1.625 6C1.625 7.16032 2.08594 8.27312 2.90641 9.09359C3.72688 9.91406 4.83968 10.375 6 10.375Z" stroke="black" stroke-width="1.5" stroke-linecap="round" stroke-linejoin="round"/>
</svg>
